<svg width="128" height="128" viewBox="0 0 128 128" fill="none" xmlns="http://www.w3.org/2000/svg">
<g clip-path="url(#clip0_43_6002)">
<path d="M0 0H128V128H0V0Z" fill="#ECF5EE"/>
<path d="M31.1749 12.7963C35.7173 12.6236 41.3439 12.7715 45.9429 12.7723L74.4303 12.7757L89.7448 12.7637C95.2103 12.7593 100.351 11.9907 104.706 16.0553C109.213 20.2617 108.79 24.3817 108.771 30.019L108.768 38.7898L108.771 67.9236L108.776 84.7446C108.779 89.039 109.357 93.8046 107.051 97.5877C104.687 101.464 101.223 103.238 96.7818 103.434C91.8878 103.6 86.3752 103.476 81.4412 103.476L53.2071 103.475L38.2292 103.478C32.9118 103.488 27.7596 104.302 23.4597 100.594C20.9892 98.469 19.4748 95.4415 19.2559 92.1902C19.1523 90.7412 19.2182 88.6046 19.2231 87.111L19.2276 78.81L19.2228 50.9826L19.2169 32.5808C19.2141 27.2193 18.4103 21.4811 22.2292 17.1805C24.6683 14.4337 27.5183 13.049 31.1749 12.7963Z" fill="#2C7FFF"/>
<path d="M32.6756 17.1653C34.2491 16.9666 39.7219 17.0983 41.5176 17.1016L59.2473 17.1025L83.0796 17.099L90.3736 17.0937C93.6998 17.0885 96.3554 16.6833 99.2442 18.6063C101.369 20.0091 102.829 22.2201 103.283 24.7257C103.575 26.2924 103.473 31.8426 103.473 33.6725L103.469 51.267L103.473 76.9084C103.473 81.4347 103.569 85.9786 103.348 90.4965C103.122 95.1286 99.7153 98.3227 95.2914 99.114C91.2424 99.3514 85.9869 99.1976 81.8602 99.1971L57.3859 99.192L41.3016 99.1966C38.4552 99.1989 35.3223 99.3017 32.5144 99.0662C29.9774 98.8535 27.2801 96.868 25.9859 94.7429C24.9409 93.0269 24.5758 91.322 24.5886 89.3181C24.5097 86.2985 24.5344 83.2684 24.5342 80.2517L24.5367 59.732L24.5396 37.3124C24.5407 33.3591 24.4319 29.3311 24.6881 25.3946C24.9659 21.121 28.5059 17.7135 32.6756 17.1653Z" fill="#FEFEFE"/>
<path d="M54.1142 72.6328C53.4504 73.5893 52.7346 73.9057 51.5376 73.8857C46.1381 73.7957 40.744 73.8625 35.3444 73.8407C34.0546 73.9538 32.5319 73.2357 32.7019 71.6839C33.1106 67.9547 31.955 49.3864 33.0324 47.187C34.977 46.0164 43.3694 46.8439 46.122 46.5805C46.3979 46.5542 46.9281 46.6023 47.2112 46.653C48.0069 47.3647 54.0355 53.4385 54.1952 53.4977L54.1849 53.9315C54.2872 58.7003 54.18 63.495 54.2205 68.2662C54.2326 69.696 54.26 71.2139 54.1142 72.6328Z" fill="#1C9958"/>
<path d="M47.213 46.6484C48.0087 47.3601 54.0373 53.4339 54.197 53.4931C52.3364 53.4892 50.2878 53.6589 48.475 53.5662C48.2173 53.5191 47.5809 53.4053 47.4853 53.2062C46.9312 52.0526 47.0909 47.7848 47.213 46.6484Z" fill="#84C39A"/>
<path d="M48.4736 53.5654C50.2864 53.6581 52.335 53.4884 54.1956 53.4923L54.1852 53.9261C53.8656 55.2014 54.3214 57.6463 54.0115 59.1089C53.073 59.012 48.7154 54.5498 48.3184 53.7169L48.4736 53.5654Z" fill="#1C814C"/>
<path d="M42.7734 59.5C45.2819 59.5285 47.8646 59.5004 50.3781 59.5001C50.3381 62.381 50.3389 65.2623 50.3804 68.143C47.8902 68.0771 45.3379 68.1098 42.8427 68.1175C42.8332 65.2241 42.8904 62.3965 42.7734 59.5Z" fill="#FEFEFE"/>
<path d="M46.6211 65.4961L49.4796 65.5157L49.4108 67.1922C48.762 67.2603 47.3295 67.2228 46.6222 67.2241L46.6211 65.4961Z" fill="#1C9958"/>
<path d="M46.6367 62.9844L49.4844 62.985L49.4865 64.6219C48.622 64.6663 47.5141 64.6261 46.6309 64.6173L46.6367 62.9844Z" fill="#1C9958"/>
<path d="M46.6367 60.4131C47.5156 60.3877 48.5273 60.4394 49.4171 60.4654L49.4517 61.9938C48.5242 62.1397 47.5583 62.1082 46.6172 62.1037L46.6367 60.4131Z" fill="#1C9958"/>
<path d="M44.5615 60.4245C44.9177 60.3973 45.1391 60.3553 45.4829 60.474C46.0321 61.0761 46.1332 61.948 45.1575 62.1042C44.4502 62.1351 43.3301 62.1781 43.7529 60.8245C43.8509 60.511 44.251 60.4852 44.5615 60.4245Z" fill="#1C9958"/>
<path d="M43.7855 65.5146C44.4367 65.4924 45.1764 65.5036 45.8339 65.5L45.7342 67.2081C45.1054 67.2236 44.4006 67.1993 43.7656 67.1919L43.7855 65.5146Z" fill="#1C9958"/>
<path d="M43.767 62.9718C44.4051 62.9589 45.1164 62.9906 45.7601 63.0054L45.7577 64.6181C45.1415 64.6468 44.3788 64.6273 43.75 64.6273L43.767 62.9718Z" fill="#1C9958"/>
<path d="M37.2981 59.7576C38.1475 59.6989 40.6135 59.6441 40.2996 61.0367C39.8991 61.4097 39.6443 61.3867 39.1465 61.2975C37.7423 61.046 36.3028 60.9137 36.2021 62.7975C36.1661 63.4715 36.2034 64.1095 36.6069 64.6999C36.891 65.1142 37.3326 65.3938 37.8286 65.4733C38.677 65.6173 39.8776 65.1743 40.0139 64.2532C39.5731 63.8929 38.9329 64.2004 38.3225 63.7792C38.1479 63.3686 38.1811 63.5478 38.2594 63.0506C38.5158 62.7742 38.432 62.8562 38.8983 62.8121C39.7701 62.7592 40.6329 62.7835 41.5063 62.7954C41.4223 65.3464 40.0175 67.6186 37.1801 66.6258C36.2423 66.2936 35.475 65.6018 35.048 64.7032C34.0135 62.5115 35.2834 60.6853 37.2981 59.7576Z" fill="#FEFEFE"/>
<path d="M43.8702 37.7694C43.8539 37.5963 43.8992 37.4534 43.9367 37.2829C44.6508 36.8876 64.6497 37.196 67.7514 37.1116C69.7093 37.0584 83.4259 37.0186 84.1338 37.2443C84.3428 37.8541 84.2841 44.3724 84.1796 45.284L83.9919 45.4389C83.4869 45.2794 83.6191 44.8593 83.6511 44.3925C81.0932 44.3878 78.5067 44.4438 75.9529 44.376C75.3419 44.4185 74.9296 44.4181 74.3166 44.397C74.2751 45.647 74.3327 49.6655 74.1794 50.5081C74.8266 50.5354 75.2727 50.4683 75.8003 50.812L75.7882 50.9783C75.3582 51.2323 74.7936 51.1821 74.2833 51.186L74.2334 53.0016C74.2993 53.8693 74.3586 56.4263 74.1069 57.152L73.9361 57.2031C73.2458 56.3546 74.1867 52.0471 73.3539 51.1945C70.4102 51.0998 67.3184 51.154 64.3636 51.1626C64.3131 52.4633 64.5291 56.0996 64.1192 57.0439L63.9336 57.0919C63.6728 56.7013 63.7474 52.0105 63.7462 51.1641C60.7079 51.1381 57.6487 51.1988 54.6138 51.1338L54.5326 51.2363C54.5036 51.5435 54.4808 51.6225 54.3847 51.9165C54.1711 51.8533 53.1588 50.9004 52.9991 50.6495L53.1124 50.4879L53.6549 50.456C54.0062 50.0656 53.7718 45.2823 53.7527 44.404C53.1899 44.4215 52.4904 44.3818 51.9172 44.3651C49.5076 44.447 46.8937 44.4004 44.4692 44.4019C44.5127 44.9756 44.5984 45.0608 44.1266 45.4251L43.9838 45.2835C43.7867 44.2371 43.8676 39.1209 43.8702 37.7694Z" fill="#CCCDD0"/>
<path d="M53.857 40.1528C53.9363 39.5511 53.9756 38.6326 54.0208 38.0046L54.1726 37.9549L54.0527 37.8559L54.1553 37.8641C54.2542 38.2477 54.3088 38.5537 54.376 38.9422C54.4167 38.5847 54.4197 38.1124 54.6198 37.8454C57.4822 37.6792 60.861 38.0119 63.6987 37.7891L63.7653 40.3308L63.8001 40.2234C64.083 39.3183 63.7551 38.3396 64.0153 37.8388C64.2615 38.1558 64.0981 41.5457 64.3153 42.2929C64.2952 42.7084 64.2061 43.3903 64.4073 43.7177C64.684 43.8366 64.694 43.8358 64.9993 43.8123L64.9827 43.8842L64.5005 43.9526C64.445 44.1028 64.3927 44.2269 64.3626 44.3853C64.3358 46.4354 64.3746 48.5628 64.31 50.5949L69.558 50.5932C70.2173 50.5906 71.8253 50.5508 72.4537 50.6262C72.9155 50.7526 73.03 50.7798 73.51 50.8033L73.5677 50.9364L73.3547 51.1974C70.411 51.1027 67.3192 51.1569 64.3643 51.1656C64.3138 52.4662 64.5298 56.1026 64.12 57.0468L63.9343 57.0948C63.6736 56.7042 63.7482 52.0134 63.747 51.1671C60.7087 51.1411 57.6495 51.2017 54.6146 51.1367L54.5333 51.2392C54.5043 51.5464 54.4816 51.6254 54.3855 51.9194C54.1718 51.8562 53.1596 50.9033 52.9998 50.6524L53.1132 50.4908L53.6557 50.4589C54.007 50.0686 53.7726 45.2852 53.7535 44.4069C53.1907 44.4244 52.4912 44.3847 51.918 44.3681C52.1921 44.1136 53.0581 44.1637 53.5326 44.1371L53.3198 44.0359L53.2437 44.1094C53.0905 43.9508 53.0223 44.0019 52.7281 43.9753L53.2651 43.8066L53.6705 43.7524C53.9808 43.3222 53.8402 40.9004 53.857 40.1528Z" fill="#FEFEFE"/>
<path d="M53.857 40.1528C53.9363 39.5511 53.9756 38.6326 54.0208 38.0046L54.1726 37.9549L54.0527 37.8559L54.1553 37.8641C54.2542 38.2477 54.3088 38.5537 54.376 38.9422C54.4167 38.5847 54.4197 38.1124 54.6198 37.8454C57.4822 37.6792 60.861 38.0119 63.6987 37.7891L63.7653 40.3308C63.752 41.4832 63.7502 42.6357 63.7602 43.7882L59.9162 43.8062L59.8903 43.9056C59.1795 43.9054 54.8568 43.8249 54.5672 44.0723C55.0291 44.4524 55.284 44.0071 56.088 44.3824C55.5565 44.4011 54.9823 44.4329 54.454 44.4256C54.399 46.3552 54.3408 48.6053 54.4306 50.5351C54.8111 50.5499 55.528 50.5574 55.8786 50.6108C55.4485 50.6469 54.7247 50.6208 54.4656 50.8654C54.5251 51.0009 54.5202 51.0336 54.6146 51.1367L54.5333 51.2392C54.5043 51.5464 54.4816 51.6254 54.3855 51.9194C54.1718 51.8562 53.1596 50.9033 52.9998 50.6524L53.1132 50.4908L53.6557 50.4589C54.007 50.0686 53.7726 45.2852 53.7535 44.4069C53.1907 44.4244 52.4912 44.3847 51.918 44.3681C52.1921 44.1136 53.0581 44.1637 53.5326 44.1371L53.3198 44.0359L53.2437 44.1094C53.0905 43.9508 53.0223 44.0019 52.7281 43.9753L53.2651 43.8066L53.6705 43.7524C53.9808 43.3222 53.8402 40.9004 53.857 40.1528Z" fill="#CCCDD0"/>
<path d="M53.857 40.1484C53.9363 39.5467 53.9756 38.6282 54.0208 38.0002L54.1726 37.9506L54.0527 37.8516L54.1553 37.8597C54.2542 38.2433 54.3088 38.5493 54.376 38.9378L54.388 43.7621L59.9162 43.8018L59.8903 43.9012C59.1795 43.9011 54.8568 43.8206 54.5672 44.0679C55.0291 44.4481 55.284 44.0027 56.088 44.3781C55.5565 44.3967 54.9823 44.4286 54.454 44.4212C54.399 46.3508 54.3408 48.6009 54.4306 50.5307C54.8111 50.5456 55.528 50.5531 55.8786 50.6064C55.4485 50.6426 54.7247 50.6164 54.4656 50.8611C54.5251 50.9966 54.5202 51.0292 54.6146 51.1323L54.5333 51.2348C54.5043 51.5421 54.4816 51.6211 54.3855 51.9151C54.1718 51.8518 53.1596 50.8989 52.9998 50.6481L53.1132 50.4864L53.6557 50.4546C54.007 50.0642 53.7726 45.2808 53.7535 44.4026C53.1907 44.4201 52.4912 44.3803 51.918 44.3637C52.1921 44.1092 53.0581 44.1593 53.5326 44.1327L53.3198 44.0316L53.2437 44.1051C53.0905 43.9464 53.0223 43.9976 52.7281 43.9709L53.2651 43.8022L53.6705 43.7481C53.9808 43.3178 53.8402 40.8961 53.857 40.1484Z" fill="#2E3E48"/>
<path d="M63.7646 40.3279L63.7993 40.2206C64.0822 39.3154 63.7543 38.3367 64.0146 37.8359C64.2607 38.1529 64.0973 41.5428 64.3146 42.2901C64.2945 42.7056 64.2053 43.3874 64.4066 43.7148C64.6832 43.8337 64.6932 43.8329 64.9986 43.8094L64.982 43.8813L64.4997 43.9497C64.4442 44.0999 64.392 44.2241 64.3618 44.3824C64.3351 46.4326 64.3738 48.5599 64.3092 50.5921L69.5572 50.5903C70.2166 50.5877 71.8246 50.5479 72.453 50.6233C72.9147 50.7497 73.0292 50.7769 73.5092 50.8004L73.567 50.9336L73.354 51.1946C70.4102 51.0998 67.3185 51.1541 64.3636 51.1627C64.3131 52.4633 64.5291 56.0997 64.1192 57.0439L63.9336 57.0919C63.6728 56.7013 63.7475 52.0106 63.7462 51.1642C60.708 51.1382 57.6487 51.1988 54.6138 51.1338C54.5195 51.0307 54.5243 50.9981 54.4648 50.8626C54.724 50.6179 55.4477 50.6441 55.8778 50.6079C57.0528 50.4824 62.3321 50.5894 63.7486 50.5909C63.7457 49.7574 63.877 44.8961 63.6351 44.3817C61.2122 44.4056 58.4967 44.4517 56.0872 44.3796C55.2832 44.0042 55.0283 44.4496 54.5665 44.0694C54.8561 43.8221 59.1787 43.9026 59.8896 43.9027L59.9155 43.8033L63.7595 43.7853C63.7495 42.6328 63.7512 41.4803 63.7646 40.3279Z" fill="#272D38"/>
<path d="M64.998 43.8091C66.7091 43.7297 72.1943 43.9542 73.4885 43.7C73.7107 43.3827 73.6962 42.7273 73.7196 42.3125C73.7718 42.7553 73.814 43.1659 73.9076 43.6026L74.0363 43.6587L74.1901 43.4104L74.3365 43.6906C75.2506 43.9625 81.267 43.6704 82.7831 43.85L83.6047 43.8057L83.6505 44.3923C81.0926 44.3875 78.5061 44.4435 75.9523 44.3757C75.3413 44.4182 74.929 44.4179 74.316 44.3967C74.2745 45.6467 74.3321 49.6652 74.1788 50.5079C74.826 50.5351 75.2721 50.468 75.7997 50.8117L75.7876 50.978C75.3576 51.232 74.793 51.1819 74.2827 51.1857L74.2328 53.0014C74.2987 53.869 74.358 56.426 74.1063 57.1517L73.9355 57.2029C73.2452 56.3544 74.1861 52.0469 73.3533 51.1942L73.5663 50.9333L73.5086 50.8001C73.0286 50.7766 72.9141 50.7494 72.4523 50.623C71.824 50.5476 70.216 50.5874 69.5566 50.59L64.3086 50.5917C64.3732 48.5596 64.3345 46.4322 64.3612 44.3821C64.3913 44.2237 64.4436 44.0996 64.4991 43.9494L64.9813 43.881L64.998 43.8091Z" fill="#FEFEFE"/>
<path d="M65 43.8091C66.7112 43.7297 72.1964 43.9542 73.4905 43.7C73.7128 43.3827 73.6983 42.7273 73.7217 42.3125C73.7739 42.7553 73.816 43.1659 73.9097 43.6026L74.0384 43.6587L74.1922 43.4104L74.3385 43.6906C75.2527 43.9625 81.269 43.6704 82.7852 43.85L83.6068 43.8057L83.6525 44.3923C81.0947 44.3875 78.5082 44.4435 75.9544 44.3757C75.3434 44.4182 74.931 44.4179 74.318 44.3967C74.2765 45.6467 74.3342 49.6652 74.1809 50.5079C74.828 50.5351 75.2742 50.468 75.8018 50.8117L75.7896 50.978C75.3596 51.232 74.795 51.1819 74.2848 51.1857L74.2349 53.0014C74.3008 53.869 74.36 56.426 74.1084 57.1517L73.9375 57.2029C73.2473 56.3544 74.1882 52.0469 73.3554 51.1942L73.5684 50.9333L73.5107 50.8001C73.0307 50.7766 72.9162 50.7494 72.4544 50.623L73.6379 50.5529C73.6627 49.3945 73.8234 45.3296 73.5548 44.5037C73.3029 44.4251 73.179 44.4111 72.9163 44.3742C70.152 44.4481 67.1373 44.3986 64.3633 44.3821C64.3934 44.2237 64.4457 44.0996 64.5012 43.9494L64.9834 43.881L65 43.8091Z" fill="#2E3E48"/>
<path d="M64.9834 43.8828C66.8455 44.0416 72.0562 43.7202 73.436 44.0643L73.505 44.1708C73.2364 44.2227 73.0524 44.2028 72.9163 44.3761C70.152 44.4499 67.1373 44.4004 64.3633 44.3839C64.3934 44.2256 64.4457 44.1014 64.5012 43.9512L64.9834 43.8828Z" fill="#272D38"/>
<path d="M82.7842 43.8489L83.6058 43.8047L83.6516 44.3912C81.0937 44.3864 78.5072 44.4424 75.9535 44.3747L75.8731 44.2651C75.4298 44.0727 75.0681 44.2614 74.4863 44.1877L74.5135 43.9959C76.546 43.6858 80.4821 44.1178 82.7842 43.8489Z" fill="#272D38"/>
<path d="M74.234 53.0013C74.1946 52.1838 74.0426 51.4351 73.9941 50.6258L74.18 50.5078C74.8271 50.5351 75.2733 50.4679 75.8009 50.8117L75.7888 50.9779C75.3588 51.2319 74.7941 51.1818 74.2839 51.1857L74.234 53.0013Z" fill="#44474E"/>
<path d="M44.4566 37.9798C44.8463 37.6327 52.5584 37.8557 53.7591 37.7695C53.7698 38.443 53.7591 39.5235 53.8562 40.1504C53.8394 40.898 53.9801 43.3198 53.6697 43.75L53.2643 43.8042L52.7273 43.9729C53.0216 43.9995 53.0897 43.9484 53.2429 44.107L53.3191 44.0335L53.5318 44.1347C53.0573 44.1613 52.1913 44.1112 51.9172 44.3657C49.5076 44.4475 46.8937 44.4009 44.4692 44.4024C44.5127 44.9762 44.5984 45.0613 44.1266 45.4257L43.9838 45.284C43.7867 44.2377 43.8676 39.1214 43.8702 37.7699C44.0591 37.8137 44.3387 37.8484 44.4566 37.9798Z" fill="#CCCDD0"/>
<path d="M43.8702 37.7695C44.0591 37.8133 44.3387 37.848 44.4566 37.9794C44.5233 39.5952 44.5286 42.1075 44.4698 43.7555L53.2643 43.8038L52.7273 43.9725C53.0216 43.9992 53.0897 43.948 53.2429 44.1067L53.3191 44.0332L53.5318 44.1343C53.0573 44.1609 52.1913 44.1108 51.9172 44.3653C49.5076 44.4472 46.8937 44.4005 44.4692 44.402C44.5127 44.9758 44.5984 45.0609 44.1266 45.4253L43.9838 45.2837C43.7867 44.2373 43.8676 39.121 43.8702 37.7695Z" fill="#44474E"/>
<path d="M44.4688 44.401C44.4954 44.2311 44.5505 44.1011 44.6087 43.9405C46.4449 43.8335 50.9736 43.8212 52.7269 43.9715C53.0211 43.9981 53.0893 43.947 53.2425 44.1056L53.3186 44.0321L53.5314 44.1332C53.0569 44.1598 52.1909 44.1097 51.9167 44.3642C49.5071 44.4461 46.8932 44.3995 44.4688 44.401Z" fill="#272D38"/>
<path d="M64.389 37.793C67.0257 37.9381 70.9504 37.8766 73.6092 37.7938C73.6379 39.0241 73.617 41.1612 73.72 42.3147C73.6966 42.7295 73.7111 43.385 73.4889 43.7022C72.1947 43.9565 66.7095 43.732 64.9984 43.8113C64.693 43.8348 64.683 43.8356 64.4064 43.7167C64.2051 43.3893 64.2942 42.7075 64.3144 42.292C64.3475 40.7925 64.3725 39.2928 64.389 37.793Z" fill="#CCCDD0"/>
<path d="M43.8706 37.7694C43.8543 37.5963 43.8996 37.4534 43.9371 37.2829C44.6512 36.8876 64.6501 37.196 67.7518 37.1116C69.7097 37.0584 83.4263 37.0186 84.1342 37.2443C84.3432 37.8541 84.2845 44.3724 84.18 45.284L83.9923 45.4389C83.4873 45.2794 83.6195 44.8593 83.6515 44.3925L83.6057 43.806L83.6508 42.5773L83.6263 37.7689C81.6943 37.7913 75.9411 37.9963 74.3597 37.7854C74.3212 38.9896 74.3277 42.4491 74.1911 43.4106L74.0373 43.659L73.9086 43.6029C73.815 43.1661 73.7728 42.7555 73.7206 42.3128C73.6176 41.1593 73.6385 39.0221 73.6098 37.7919C70.951 37.8746 67.0263 37.9361 64.3896 37.791C64.3731 39.2909 64.3481 40.7905 64.315 42.29C64.0977 41.5428 64.2611 38.1529 64.015 37.8359C63.7547 38.3366 64.0826 39.3154 63.7997 40.2205L63.765 40.3279L63.6983 37.7861C60.8606 38.009 57.4818 37.6763 54.6195 37.8425C54.4193 38.1095 54.4163 38.5818 54.3756 38.9393C54.3085 38.5508 54.2538 38.2448 54.155 37.8611L54.0523 37.853L54.1722 37.952L54.0205 38.0016C53.9752 38.6296 53.936 39.5481 53.8566 40.1499C53.7595 39.523 53.7702 38.4425 53.7595 37.769C52.5588 37.8551 44.8467 37.6321 44.457 37.9793C44.3391 37.8479 44.0595 37.8131 43.8706 37.7694Z" fill="#535C67"/>
<path d="M84.134 37.2461C84.343 37.856 84.2842 44.3742 84.1797 45.2858L83.9921 45.4407C83.4871 45.2812 83.6192 44.8611 83.6512 44.3943L83.6055 43.8078L83.6506 42.5791C84.0771 41.4296 83.4077 38.0862 84.134 37.2461Z" fill="#2E3E48"/>
<path d="M86.232 46.6089C89.7138 46.5867 95.2921 45.8936 95.3242 51.0582C95.322 52.3077 94.8212 53.5046 93.9328 54.3833C93.2081 55.0969 92.492 55.3871 91.5478 55.7047L89.66 55.7789C88.5533 55.7176 87.2996 55.7277 86.1811 55.7118L80.6325 55.7222L80.6018 55.6324C79.8676 55.4736 78.9295 54.8959 78.3988 54.3692C77.509 53.4868 77.0175 52.2798 77.0377 51.0268C77.0447 49.8369 77.5332 48.7007 78.392 47.8772C80.2096 46.1249 83.6797 46.5896 86.232 46.6089Z" fill="#FB6D65"/>
<path d="M80.6018 55.6324C79.8676 55.4736 78.9295 54.8959 78.3988 54.3692C77.509 53.4868 77.0175 52.2798 77.0377 51.0268C77.0447 49.8369 77.5332 48.7007 78.392 47.8772C80.2096 46.1249 83.6797 46.5896 86.232 46.6089C86.0211 48.2132 86.1007 53.7491 86.1487 55.6218C84.2997 55.6362 82.4507 55.6397 80.6018 55.6324Z" fill="#F23935"/>
<path d="M73.7285 66.2016C73.738 65.5195 73.636 65.6383 73.9703 65.1517L74.1086 65.0898C74.3745 65.4553 74.263 70.3171 74.2938 71.1158C74.8922 71.1133 75.5278 71.0508 76.0522 71.3187L76.1708 71.5061C75.9223 71.7668 75.696 71.7882 75.3401 71.7972C75.0056 71.8032 74.671 71.8033 74.3363 71.7977C74.2077 73.7227 74.2578 75.9183 74.2633 77.8695C77.3671 77.8663 80.5752 77.8263 83.6681 77.8973C83.6398 77.1687 83.5112 75.5156 83.7733 74.891L83.964 74.7831L84.1672 74.9172C84.3381 76.1273 84.1615 77.263 84.2277 78.4495C77.4641 78.4003 70.106 78.6415 63.428 78.4493C63.9943 78.3225 64.0072 78.4043 64.308 78.0362C64.1347 77.813 64.1767 77.8843 63.8033 77.8206C63.6843 77.1622 63.7613 72.9451 63.7201 71.817C61.749 71.642 56.466 72.0892 55.3555 71.4011L55.4547 71.2127C58.1526 71.1065 61.0336 71.1407 63.7456 71.1288C63.7472 70.2015 63.6001 65.5635 63.9713 65.1145L64.1975 65.1913C64.4673 65.5785 64.3407 70.196 64.3025 70.8995C64.6982 71.3026 72.4628 71.1108 73.625 71.1043C73.6405 69.5652 73.6192 67.7111 73.7285 66.2016Z" fill="#FEFEFE"/>
<path d="M63.7456 71.1316C63.7472 70.2042 63.6001 65.5662 63.9713 65.1172L64.1975 65.1941C64.4673 65.5812 64.3407 70.1987 64.3025 70.9022L64.0822 70.9597C64.4286 71.8174 64.0196 76.5168 64.294 77.8668C65.4643 77.8702 73.3226 77.9996 73.7346 77.7072C74.0296 77.7539 74.0728 77.7102 74.2633 77.8722C77.3671 77.8691 80.5752 77.8291 83.6681 77.9001C83.6398 77.1714 83.5112 75.5183 83.7733 74.8937L83.964 74.7858L84.1672 74.9199C84.3381 76.1301 84.1615 77.2657 84.2277 78.4522C77.4641 78.4031 70.106 78.6442 63.428 78.4521C63.9943 78.3252 64.0072 78.4071 64.308 78.0389C64.1347 77.8157 64.1767 77.8871 63.8033 77.8233C63.6843 77.1649 63.7613 72.9478 63.7201 71.8197C61.749 71.6447 56.466 72.0919 55.3555 71.4038L55.4547 71.2154C58.1526 71.1092 61.0336 71.1434 63.7456 71.1316Z" fill="#272D38"/>
<path d="M73.7283 66.2016C73.7378 65.5195 73.6358 65.6383 73.9702 65.1517L74.1084 65.0898C74.3743 65.4553 74.2628 70.3171 74.2937 71.1158C74.892 71.1133 75.5277 71.0508 76.052 71.3187L76.1707 71.5061C75.9222 71.7668 75.6958 71.7882 75.3399 71.7972C75.0054 71.8032 74.6708 71.8033 74.3362 71.7977C74.2075 73.7227 74.2577 75.9183 74.2632 77.8695C74.0727 77.7075 74.0294 77.7512 73.7344 77.7045C73.6295 77.3446 73.7159 74.5785 73.7327 74.0522C73.6707 73.3266 73.6345 72.5991 73.6244 71.8708C71.8798 71.7031 66.1603 71.7238 64.3889 71.8393C64.3662 73.0976 64.4292 76.9286 64.2938 77.8641C64.0194 76.5141 64.4284 71.8147 64.082 70.957L64.3023 70.8995C64.698 71.3026 72.4627 71.1108 73.6248 71.1043C73.6403 69.5652 73.619 67.7111 73.7283 66.2016Z" fill="#44474E"/>
<path d="M73.7286 66.2016C73.7381 65.5195 73.6361 65.6383 73.9704 65.1517L74.1087 65.0898C74.3746 65.4553 74.2631 70.3171 74.2939 71.1158C74.8923 71.1133 75.5279 71.0508 76.0523 71.3187L76.1709 71.5061C75.9224 71.7668 75.6961 71.7882 75.3402 71.7972C75.0057 71.8032 74.6711 71.8033 74.3364 71.7977C74.2078 73.7227 74.2579 75.9183 74.2634 77.8695C74.0729 77.7075 74.0297 77.7512 73.7347 77.7045C73.6298 77.3446 73.7162 74.5785 73.7329 74.0522C73.9189 72.6488 73.8502 67.7283 73.7286 66.2016Z" fill="#323D46"/>
<path d="M80.6323 55.7213L86.1809 55.7109C86.204 56.7862 86.2435 57.8988 86.2118 58.9706C86.2035 59.7762 86.2025 60.5819 86.2089 61.3876L86.1942 64.7362C84.4034 64.7593 82.6124 64.7566 80.8216 64.7279C75.7709 63.0424 75.6942 57.6518 80.6323 55.7213Z" fill="#9357F5"/>
<path d="M80.8208 64.7266C82.6116 64.7552 84.4026 64.7579 86.1933 64.7348C86.2207 68.0442 86.9182 72.2348 83.0514 73.6053C81.9287 74.0146 80.6881 73.9511 79.613 73.4294C78.4787 72.8547 77.6233 71.8477 77.2396 70.6353C76.8721 69.4741 76.9943 68.2132 77.578 67.1441C78.3196 65.7813 79.4061 65.1611 80.8208 64.7266Z" fill="#FBC100"/>
<path d="M86.1797 55.7102C87.2982 55.7261 88.5519 55.716 89.6586 55.7774L91.5464 55.7031C92.9661 56.1856 94.1139 56.751 94.8347 58.179C95.3802 59.2576 95.4659 60.511 95.0726 61.6537C94.6443 62.8404 93.7603 63.807 92.6166 64.3391C91.5344 64.8469 90.2917 64.8895 89.1773 64.4574C87.6344 63.8566 86.9588 62.7376 86.2077 61.3869C86.2013 60.5812 86.2023 59.7755 86.2106 58.9699C86.2423 57.8981 86.2028 56.7855 86.1797 55.7102Z" fill="#26B4F6"/>
<path d="M86.1797 55.7109C87.2982 55.7268 88.5519 55.7167 89.6586 55.7781C87.7479 56.3784 87.1151 57.3643 86.2106 58.9706C86.2423 57.8988 86.2028 56.7862 86.1797 55.7109Z" fill="#FEFEFE"/>
<path d="M66.9291 56.4297C68.0718 56.6124 71.7973 59.4017 72.8315 60.2344C72.6938 60.3521 72.5521 60.4647 72.4066 60.5724C71.5855 61.1776 67.7985 64.0154 67.0025 63.8898C66.3747 62.7606 69.1247 61.3852 70.0015 60.7301C68.7506 60.8882 67.2975 60.8443 66.023 60.8409C64.9643 60.8339 57.65 60.9519 57.3226 60.7191C57.241 60.3099 57.252 60.2521 57.3243 59.8464C57.7906 59.4342 60.6144 59.6274 61.397 59.6241C64.2765 59.5949 67.1563 59.5933 70.0358 59.6189C69.0343 58.9507 67.5279 58.1782 66.8196 57.2771C66.7241 56.8073 66.7585 56.9307 66.9291 56.4297Z" fill="#44474E"/>
<path d="M53.8713 77.9222C54.1858 77.9382 54.0667 77.9535 54.3644 77.7852C54.7768 77.935 62.923 77.9152 63.8024 77.8209C64.1758 77.8847 64.1338 77.8133 64.307 78.0365C64.0063 78.4047 63.9934 78.3228 63.427 78.4497C57.0868 78.3213 50.6815 78.4769 44.3387 78.4612C44.0194 78.4603 44.0408 78.3984 43.8574 78.1684L44.3609 77.9498C45.5038 77.814 52.4979 77.8135 53.8713 77.9222Z" fill="#14131A"/>
<path d="M53.8709 77.9216C53.8221 77.2207 53.7194 75.1167 54.1223 74.5742C54.5325 75.0077 54.3836 77.1121 54.364 77.7846C54.0663 77.953 54.1854 77.9376 53.8709 77.9216Z" fill="black"/>
<path d="M43.8574 78.1653C43.873 77.2649 43.8533 75.6797 44.2414 74.8652L44.3452 74.9683L44.2942 74.8438L44.229 74.9059L44.3725 75.0526C44.4882 76.2638 44.4995 76.7717 44.3609 77.9466L43.8574 78.1653Z" fill="black"/>
<path d="M82.0826 110.262C82.7442 110.188 85.0118 110.102 85.4358 110.562C85.3135 110.844 85.0225 110.972 84.7318 111.177C84.4175 113.692 83.5168 113.289 81.3268 113.488C82.7487 113.911 84.613 113.513 84.9813 115.218C84.5793 117.021 82.0736 117.325 80.9588 116.044C80.4153 115.419 80.9652 114.865 81.0732 114.203L80.7256 113.81C80.8278 113.274 81.3503 113.337 81.3188 112.936C81.209 111.54 80.486 111.135 82.0826 110.262Z" fill="black"/>
<path d="M81.9846 114.602C82.6134 114.634 83.344 114.594 83.787 115.05C83.8529 115.469 83.8737 115.294 83.6427 115.723C83.429 115.775 83.2131 115.818 82.9957 115.851C82.5091 115.923 82.3346 115.841 81.9816 115.579C81.8086 115.039 81.8557 115.204 81.9846 114.602Z" fill="#FEFEFE"/>
<path d="M82.4559 111.175C82.6894 111.037 82.9794 111.035 83.214 111.172C83.4486 111.308 83.5913 111.561 83.5868 111.832C83.5823 112.104 83.4314 112.351 83.1924 112.48C82.833 112.673 82.3853 112.543 82.1848 112.188C81.9843 111.833 82.1048 111.382 82.4559 111.175Z" fill="#FEFEFE"/>
<path d="M48.3662 110.272C48.6052 110.243 48.8454 110.227 49.086 110.223C49.6794 110.213 51.015 110.109 51.4232 110.501C51.3725 110.871 51.2419 110.885 50.9239 111.203C50.8389 113.641 49.5282 113.318 47.5604 113.491C49.313 114.041 51.2428 113.334 51.1313 115.792C50.5052 116.544 50.0199 116.755 49.1233 116.733C46.8378 116.679 46.8572 116.184 47.2797 114.203C47.3018 114.1 46.9395 114.063 46.9797 113.538C48.669 112.154 45.6549 111.605 48.3662 110.272Z" fill="black"/>
<path d="M48.3145 114.609C48.4382 114.617 48.5619 114.626 48.6854 114.636C49.1586 114.675 49.6976 114.692 50.0159 115.066C50.0507 115.495 50.053 115.355 49.79 115.776C49.1107 115.911 48.5627 116.018 48.0907 115.458C48.0176 115.078 48.1319 114.942 48.3145 114.609Z" fill="#FEFEFE"/>
<path d="M48.9304 111.035C49.3237 110.966 49.7044 111.21 49.8055 111.596C49.9068 111.982 49.6947 112.382 49.3179 112.514C49.0454 112.61 48.742 112.544 48.5334 112.344C48.3248 112.144 48.246 111.844 48.3299 111.568C48.4138 111.291 48.6459 111.085 48.9304 111.035Z" fill="#FEFEFE"/>
<path d="M32.2738 108.387C33.2654 108.325 35.0118 109.01 35.1281 110.13C34.3822 110.758 31.5507 108.265 30.8333 110.6C30.3547 112.158 30.7437 113.798 32.6859 113.746C33.3481 113.728 34.3547 112.888 33.9781 112.24C33.5996 112.199 33.2226 112.146 32.8477 112.08C32.5417 111.792 32.6392 111.838 32.6158 111.282C33.4836 111.305 34.5052 111.265 35.3848 111.253C35.3879 112.105 35.6153 114.469 34.9243 114.867C34.5988 114.791 34.5006 114.621 34.2974 114.364L34.2208 114.266C33.7022 114.224 33.0387 114.751 32.6484 114.775C28.5999 115.027 28.0259 109.312 32.2738 108.387Z" fill="black"/>
<path d="M86.1664 110.171C86.6654 110.201 86.9197 110.404 87.3469 110.666C87.4599 110.583 87.5754 110.504 87.6933 110.428C88.8694 109.679 89.2894 110.741 90.2145 110.714C90.7343 110.486 91.6799 110.025 92.2428 110.185C93.4423 110.527 93.5838 113.5 93.3287 114.571C92.9147 114.878 92.7379 114.99 92.344 114.683C91.9318 113.673 92.5597 112.009 91.6915 111.289C91.2944 111.147 91.2129 111.165 90.8123 111.27L90.7067 111.299C89.7877 112.628 90.7907 113.965 90.0104 114.705C89.573 114.727 89.532 114.799 89.1878 114.615C88.8168 113.434 89.614 111.799 88.5128 111.2C86.2927 111.201 88.0313 113.854 87.0064 114.717C86.6624 114.741 86.5177 114.785 86.2123 114.627C86.037 114.106 86.1194 110.869 86.1664 110.171Z" fill="black"/>
<path d="M43.8784 110.177C45.1401 110.096 46.2362 111.036 46.3494 112.295C46.4625 113.554 45.5514 114.674 44.2954 114.82C43.4536 114.917 42.6252 114.551 42.1317 113.862C41.6381 113.173 41.5571 112.271 41.92 111.505C42.283 110.739 43.0327 110.231 43.8784 110.177Z" fill="black"/>
<path d="M43.6376 111.195C45.385 111.238 45.5731 112.86 44.4055 113.804C42.6141 113.778 42.5193 112.255 43.6376 111.195Z" fill="#FEFEFE"/>
<path d="M37.7524 110.327C38.5435 110.023 39.4374 110.172 40.0868 110.717C40.736 111.262 41.0385 112.116 40.8767 112.948C40.7147 113.78 40.1139 114.458 39.3077 114.72C38.1064 115.109 36.8135 114.471 36.392 113.28C35.9705 112.09 36.5738 110.78 37.7524 110.327Z" fill="black"/>
<path d="M38.1807 111.205C39.9522 111.138 40.0743 112.75 39.0603 113.788C37.2756 113.858 37.1057 112.332 38.1807 111.205Z" fill="#FEFEFE"/>
<path d="M59.0597 113.391C58.353 114.801 56.8082 115.449 55.5102 114.348C54.953 113.879 54.6131 113.202 54.5703 112.474C54.4127 109.693 59.0433 109.031 59.139 112.744C59.1195 112.878 59.0513 113.275 59.0597 113.391Z" fill="black"/>
<path d="M59.0595 113.393C57.6527 113.005 56.5527 114.772 55.8438 113.11L55.9695 112.911C56.665 112.647 58.3349 112.742 59.1387 112.747C59.1192 112.881 59.0511 113.277 59.0595 113.393Z" fill="#CCCDD0"/>
<path d="M56.5971 111.109C57.168 111.136 57.4872 111.271 57.8877 111.688L57.8759 111.922L57.5307 112.072C57.025 112.077 56.2381 112.178 55.9121 111.775C56.113 111.358 56.1677 111.415 56.5971 111.109Z" fill="#FEFEFE"/>
<path d="M67.3334 110.311C68.1351 110.039 69.0214 110.224 69.646 110.796C70.2708 111.367 70.5349 112.233 70.3351 113.056C70.1355 113.879 69.5038 114.528 68.6867 114.749C67.4766 115.077 66.2249 114.385 65.8593 113.186C65.4936 111.986 66.1463 110.714 67.3334 110.311Z" fill="black"/>
<path d="M67.6534 111.22C69.4336 111.175 69.5882 112.714 68.5468 113.79C66.7423 113.88 66.5621 112.307 67.6534 111.22Z" fill="#FEFEFE"/>
<path d="M95.4205 111.658C94.9493 111.795 95.0185 111.846 94.5885 111.747C94.137 110.19 98.5829 108.947 98.4471 111.997C98.4171 112.672 98.8489 114.699 97.9494 114.868C97.6642 114.676 97.5385 114.585 97.2865 114.351C96.4997 114.589 95.584 114.92 94.7826 114.608C94.058 114.326 94.1895 113.178 94.5319 112.67C94.8092 112.258 95.8068 112.095 96.2584 112.056C96.0901 111.905 95.6495 111.751 95.4205 111.658Z" fill="black"/>
<path d="M95.4219 111.655C95.982 111.198 96.4945 110.867 97.1335 111.496L97.2004 111.766L97.0312 111.992C96.7433 112.034 96.5539 112.073 96.2598 112.054C96.0915 111.903 95.6509 111.749 95.4219 111.655Z" fill="#FEFEFE"/>
<path d="M96.1503 112.799C96.6397 112.777 96.9313 112.678 97.2089 113.105C97.1203 113.506 96.7898 113.709 96.4657 113.979C96.2417 113.974 96.0956 113.922 95.8821 113.864C95.5623 113.526 95.6174 113.672 95.5547 113.287C95.7964 112.881 95.6577 113.018 96.1503 112.799Z" fill="#FEFEFE"/>
<path d="M73.6092 108.516C74.378 108.527 77.3166 108.401 77.6925 108.858C77.6496 109.79 75.5605 109.509 74.7655 109.503L74.7532 111.151C75.6104 111.149 76.9101 110.919 77.3535 111.655C76.7807 112.356 75.6317 112.122 74.7615 112.102C74.7481 112.831 74.9801 114.181 74.5926 114.668C74.2712 114.765 74.131 114.728 73.8029 114.686C73.3967 114.121 73.6014 109.493 73.6092 108.516Z" fill="black"/>
<path d="M63.1859 108.906C63.6152 109.039 63.5555 108.955 63.8235 109.255C63.8126 109.629 63.7718 110.128 64.0787 110.362C64.4084 110.299 64.6043 110.22 64.901 110.359L65.0097 110.719C64.7307 111.344 63.7583 111.366 63.7776 112.109C63.8123 113.429 63.6819 113.612 64.8358 113.767C65.1014 114.158 65.0078 114.172 65.0065 114.74C61.4728 114.899 63.3215 112.891 62.4967 111.346C62.1855 111.234 62.1039 111.206 61.8309 111.022C61.7669 110.681 61.7439 110.816 61.8919 110.516C63.2251 110.087 62.2272 109.78 63.1859 108.906Z" fill="black"/>
<path d="M52.3352 108.374C52.7798 108.359 52.9501 108.365 53.3908 108.422C53.7132 108.845 53.5967 113.763 53.5415 114.596C53.227 114.832 52.896 114.8 52.5762 114.619C52.1558 113.815 52.3296 109.574 52.3352 108.374Z" fill="black"/>
<path d="M78.6554 110.281C79.1423 110.303 79.2655 110.307 79.7339 110.442C79.8375 110.95 79.7758 113.775 79.8413 114.669C79.4544 114.721 78.9235 114.844 78.6409 114.568C78.5224 113.564 78.5711 111.316 78.6554 110.281Z" fill="black"/>
<path d="M78.7343 108.448C78.934 108.285 79.2073 108.244 79.446 108.342C79.6849 108.44 79.8508 108.66 79.8783 108.917C79.9058 109.174 79.7903 109.425 79.5777 109.571C79.2673 109.784 78.8437 109.715 78.6174 109.414C78.3912 109.113 78.4428 108.687 78.7343 108.448Z" fill="black"/>
</g>
<defs>
<clipPath id="clip0_43_6002">
<rect width="128" height="128" fill="white"/>
</clipPath>
</defs>
</svg>
